<svg width="22" height="19" viewBox="0 0 22 19" fill="none" xmlns="http://www.w3.org/2000/svg">
<path d="M3.84503 0C4.2605 0 4.61817 0.30167 4.69766 0.71863V0.71863C4.72856 0.980983 4.95092 1.17869 5.21508 1.17869H19.951C20.6844 1.17869 21.2697 1.92457 21.0638 2.67635L19.1129 9.74994C18.9719 10.2583 18.5167 10.6082 18.0001 10.6082H7.6095C7.05581 10.6082 6.63841 11.1114 6.74071 11.6555V11.6555C6.81927 12.0734 7.18426 12.3762 7.6095 12.3762H18.0073C18.4878 12.3762 18.8744 12.7703 18.8744 13.2602C18.8744 13.7501 18.4878 14.1442 18.0073 14.1442H6.12472C5.74176 14.1442 5.38409 13.8422 5.30461 13.426L3.47332 3.61975C3.27285 2.54625 2.33584 1.76803 1.24379 1.76803V1.76803C0.765088 1.76803 0.376709 1.37206 0.376709 0.884015C0.376709 0.395965 0.765088 0 1.24379 0H3.84503ZM5.00113 17.091C5.00113 16.1149 5.77789 15.3229 6.73529 15.3229C7.69269 15.3229 8.46945 16.1149 8.46945 17.091C8.46945 18.067 7.69269 18.859 6.73529 18.859C5.77789 18.859 5.00113 18.067 5.00113 17.091ZM18.8744 17.091C18.8744 18.067 18.0976 18.859 17.1402 18.859C16.1828 18.859 15.4061 18.067 15.4061 17.091C15.4061 16.1149 16.1828 15.3229 17.1402 15.3229C18.0976 15.3229 18.8744 16.1149 18.8744 17.091Z" fill="#FF8F52"/>
</svg>
